<?xml version="1.0" encoding="utf-8"?>
<svg version="1.1" id="Layer_1" xmlns="http://www.w3.org/2000/svg" xmlns:xlink="http://www.w3.org/1999/xlink" x="0px" y="0px"
	 width="25px" height="25px" viewBox="0 0 25 25" enable-background="new 0 0 25 25" xml:space="preserve">
<path fill="#FBF9F8" d="M12.5,7.15c1.242,0,2.25-1.008,2.25-2.25s-1.008-2.25-2.25-2.25s-2.25,1.008-2.25,2.25
	S11.258,7.15,12.5,7.15z M12.5,14.75c1.242,0,2.25-1.008,2.25-2.25s-1.008-2.25-2.25-2.25s-2.25,1.008-2.25,2.25
	S11.258,14.75,12.5,14.75z M14.75,20.1c0,1.242-1.008,2.25-2.25,2.25s-2.25-1.008-2.25-2.25s1.008-2.25,2.25-2.25
	S14.75,18.858,14.75,20.1z"/>
</svg>
